<?xml version="1.0" encoding="utf-8" ?>
<svg viewBox="-40 -10 340 260" version="1.1" xmlns="http://www.w3.org/2000/svg">
  <path d="M 200,150 
    M 200,147 L 197,150 L 197,154 L 193,157 L 193,161 L 172,182 L 169,182 L 162,189 L 158,189 L 141,206 L 144,203 L 148,203 L 151,200 L 158,200 L 162,197 L 165,197 L 169,193 L 176,193 L 179,190 L 183,190 L 186,186 L 190,186 L 211,165 L 225,165 L 228,162 L 235,162 L 239,165 L 253,165 L 256,169 L 260,169 L 263,172 L 267,172 L 253,158 L 249,158 L 246,155 L 239,155 L 235,151 L 228,151 L 225,148 Z
    M 42,144 L 38,148 L 35,148 L 24,158 L 24,165 L 28,169 L 28,176 L 35,183 L 35,165 L 38,162 L 38,158 L 42,155 L 42,151 L 49,144 Z
    M 189,127 L 189,134 L 185,137 L 185,141 L 182,144 L 182,148 L 164,165 L 161,165 L 150,176 L 147,176 L 136,186 L 133,186 L 126,193 L 126,197 L 119,204 L 119,207 L 115,211 L 115,228 L 115,225 L 119,221 L 119,218 L 133,204 L 136,204 L 147,193 L 150,193 L 157,186 L 161,186 L 171,176 L 175,176 L 185,165 L 185,162 L 189,158 L 189,155 L 192,151 L 192,137 L 189,134 Z
    M 80,64 L 77,67 L 73,67 L 73,71 L 66,78 L 66,85 L 63,88 L 63,92 L 59,95 L 59,99 L 45,113 L 52,113 L 56,109 L 63,109 L 73,99 L 73,92 L 77,88 L 77,71 L 80,67 Z
    M 101,46 L 98,50 L 94,50 L 91,53 L 94,53 L 98,50 L 105,50 L 108,53 L 112,53 L 126,67 L 126,78 L 129,81 L 129,85 L 143,99 L 143,106 L 147,109 L 147,116 L 143,120 L 143,127 L 129,141 L 126,141 L 115,151 L 112,151 L 105,158 L 101,158 L 94,165 L 91,165 L 77,179 L 77,183 L 73,186 L 73,190 L 70,193 L 70,207 L 73,211 L 73,218 L 80,225 L 80,228 L 87,235 L 84,232 L 84,225 L 80,221 L 80,211 L 84,207 L 84,200 L 101,183 L 105,183 L 115,172 L 119,172 L 126,165 L 129,165 L 136,158 L 140,158 L 154,144 L 154,141 L 161,134 L 161,106 L 154,99 L 154,95 L 150,92 L 150,88 L 140,78 L 140,74 L 136,71 L 136,64 L 133,60 L 133,57 L 126,50 L 122,50 L 119,46 Z
    M 210,29 L 210,32 L 213,36 L 213,39 L 217,43 L 217,50 L 220,53 L 220,60 L 224,64 L 224,74 L 227,78 L 227,85 L 231,88 L 231,95 L 234,99 L 234,102 L 241,109 L 241,113 L 252,123 L 255,123 L 259,127 L 262,127 L 266,130 L 280,130 L 276,130 L 252,106 L 252,102 L 248,99 L 248,95 L 245,92 L 245,88 L 241,85 L 241,78 L 238,74 L 238,71 L 234,67 L 234,60 L 231,57 L 231,53 L 227,50 L 227,46 L 224,43 L 224,39 L 213,29 Z
    M 150,4 L 147,8 L 136,8 L 133,11 L 129,11 L 119,22 L 115,22 L 112,25 L 105,25 L 101,29 L 94,29 L 80,43 L 80,46 L 87,39 L 91,39 L 94,36 L 98,36 L 101,32 L 122,32 L 129,25 L 136,25 L 140,22 L 150,22 L 154,25 L 161,25 L 182,46 L 182,53 L 185,57 L 185,64 L 189,67 L 189,81 L 192,85 L 192,92 L 196,95 L 196,102 L 199,106 L 199,109 L 203,113 L 203,116 L 217,130 L 224,130 L 227,134 L 234,134 L 238,137 L 245,137 L 241,134 L 238,134 L 220,116 L 220,113 L 217,109 L 217,106 L 213,102 L 213,95 L 210,92 L 210,81 L 206,78 L 206,53 L 199,46 L 199,43 L 175,22 L 171,22 L 168,19 L 157,19 L 154,15 Z
    M 115,-10 L 112,-6 L 108,-6 L 105,-3 L 101,-3 L 87,11 L 87,15 L 84,18 L 84,22 L 80,25 L 77,25 L 73,29 L 63,29 L 59,32 L 56,32 L 52,36 L 45,36 L 38,43 L 35,43 L 31,46 L 28,46 L 28,50 L 24,53 L 24,57 L 10,71 L 3,71 L 0,74 L -4,74 L -11,81 L -18,81 L -25,88 L -32,88 L -39,95 L -39,99 L -35,102 L -35,106 L -32,109 L -32,127 L -28,130 L -28,134 L -21,141 L -21,151 L -18,155 L -18,158 L -14,162 L -14,165 L -7,172 L 0,172 L 7,165 L 10,165 L 14,162 L 21,162 L 24,158 L 49,158 L 52,155 L 66,155 L 70,151 L 80,151 L 84,155 L 70,169 L 66,169 L 49,186 L 49,211 L 52,214 L 52,218 L 63,228 L 59,225 L 59,200 L 63,197 L 63,193 L 108,148 L 108,144 L 112,141 L 112,109 L 108,106 L 108,102 L 105,99 L 105,95 L 101,95 L 101,120 L 84,137 L 80,137 L 77,141 L 66,141 L 63,144 L 49,144 L 45,148 L 35,148 L 31,151 L 21,151 L 17,155 L 10,155 L 7,158 L 3,158 L 0,162 L -4,162 L -11,155 L -11,148 L -7,144 L -4,144 L 0,141 L 3,141 L 7,144 L 21,144 L 24,141 L 24,137 L 21,134 L 10,134 L 7,137 L 3,137 L 0,141 L -4,141 L -7,137 L -11,137 L -14,134 L -18,134 L -21,130 L -21,127 L -25,123 L -25,116 L -21,113 L -21,109 L -11,99 L -11,95 L -14,95 L -18,92 L -14,88 L -7,88 L 0,81 L 7,81 L 10,78 L 14,78 L 17,74 L 21,74 L 24,78 L 21,81 L 24,81 L 28,78 L 35,78 L 38,74 L 45,74 L 52,66 L 52,63 L 38,63 L 35,59 L 35,57 L 42,50 L 45,50 L 52,43 L 59,43 L 63,39 L 66,39 L 70,36 L 80,36 L 84,32 L 91,32 L 91,29 L 112,8 L 119,8 L 122,4 L 154,4 L 157,8 L 164,8 L 168,11 L 171,11 L 178,18 L 182,18 L 189,25 L 189,29 L 196,36 L 196,32 L 192,29 L 192,25 L 189,22 L 189,18 L 168,-3 L 164,-3 L 161,-6 L 154,-6 L 150,-10 Z" 
    fill="#f25939" stroke="#d94c30" stroke-width="2.3" />
  <!-- Added extra mane hair for fullness -->
  <path d="M 30,140 Q 20,160 40,170 Q 25,150 50,160" fill="none" stroke="#d94c30" stroke-width="2" stroke-linecap="round"/>
  <path d="M 60,130 Q 55,150 70,155 Q 60,140 80,150" fill="none" stroke="#d94c30" stroke-width="2" stroke-linecap="round"/>
  <path d="M 180,120 Q 195,110 200,130 Q 190,120 210,135" fill="none" stroke="#d94c30" stroke-width="2" stroke-linecap="round"/>
  <path d="M 120,40 Q 110,20 130,30 Q 120,30 140,40" fill="none" stroke="#d94c30" stroke-width="2" stroke-linecap="round"/>
  <path d="M 160,60 Q 170,40 175,70 Q 165,55 185,75" fill="none" stroke="#d94c30" stroke-width="2" stroke-linecap="round"/>

</svg>
