<?xml version="1.0" encoding="utf-8" ?>
<svg baseProfile="full" height="1024" version="1.1" width="1024" xmlns="http://www.w3.org/2000/svg" xmlns:ev="http://www.w3.org/2001/xml-events" xmlns:xlink="http://www.w3.org/1999/xlink"><defs /><rect fill="white" height="100%" width="100%" x="0" y="0" /><path d="M 283,308 L 280,311 L 280,315 L 276,318 L 276,322 L 255,343 L 252,343 L 245,350 L 241,350 L 224,367 L 227,364 L 231,364 L 234,360 L 241,360 L 245,357 L 248,357 L 252,353 L 259,353 L 262,350 L 266,350 L 269,346 L 273,346 L 294,325 L 308,325 L 311,322 L 318,322 L 322,325 L 336,325 L 339,329 L 343,329 L 346,332 L 350,332 L 336,318 L 332,318 L 329,315 L 322,315 L 318,311 L 311,311 L 308,308 Z" fill="orange" stroke="orange" stroke-width="0.3" /><path d="M 105,304 L 101,308 L 98,308 L 87,318 L 87,325 L 91,329 L 91,336 L 98,343 L 98,325 L 101,322 L 101,318 L 105,315 L 105,311 L 112,304 Z" fill="orange" stroke="orange" stroke-width="0.3" /><path d="M 252,287 L 252,294 L 248,297 L 248,301 L 245,304 L 245,308 L 227,325 L 224,325 L 213,336 L 210,336 L 199,346 L 196,346 L 189,353 L 189,357 L 182,364 L 182,367 L 178,371 L 178,388 L 178,385 L 182,381 L 182,378 L 196,364 L 199,364 L 210,353 L 213,353 L 220,346 L 224,346 L 234,336 L 238,336 L 248,325 L 248,322 L 252,318 L 252,315 L 255,311 L 255,297 L 252,294 Z" fill="orange" stroke="orange" stroke-width="0.3" /><path d="M 143,224 L 140,227 L 136,227 L 136,231 L 129,238 L 129,245 L 126,248 L 126,252 L 122,255 L 122,259 L 108,273 L 115,273 L 119,269 L 126,269 L 136,259 L 136,252 L 140,248 L 140,231 L 143,227 Z" fill="orange" stroke="orange" stroke-width="0.3" /><path d="M 164,206 L 161,210 L 157,210 L 154,213 L 157,213 L 161,210 L 168,210 L 171,213 L 175,213 L 189,227 L 189,238 L 192,241 L 192,245 L 206,259 L 206,266 L 210,269 L 210,276 L 206,280 L 206,287 L 192,301 L 189,301 L 178,311 L 175,311 L 168,318 L 164,318 L 157,325 L 154,325 L 140,339 L 140,343 L 136,346 L 136,350 L 133,353 L 133,367 L 136,371 L 136,378 L 143,385 L 143,388 L 150,395 L 147,392 L 147,385 L 143,381 L 143,371 L 147,367 L 147,360 L 164,343 L 168,343 L 178,332 L 182,332 L 189,325 L 192,325 L 199,318 L 203,318 L 217,304 L 217,301 L 224,294 L 224,266 L 217,259 L 217,255 L 213,252 L 213,248 L 203,238 L 203,234 L 199,231 L 199,224 L 196,220 L 196,217 L 189,210 L 185,210 L 182,206 Z" fill="orange" stroke="orange" stroke-width="0.3" /><path d="M 273,189 L 273,192 L 276,196 L 276,199 L 280,203 L 280,210 L 283,213 L 283,220 L 287,224 L 287,234 L 290,238 L 290,245 L 294,248 L 294,255 L 297,259 L 297,262 L 304,269 L 304,273 L 315,283 L 318,283 L 322,287 L 325,287 L 329,290 L 343,290 L 339,290 L 315,266 L 315,262 L 311,259 L 311,255 L 308,252 L 308,248 L 304,245 L 304,238 L 301,234 L 301,231 L 297,227 L 297,220 L 294,217 L 294,213 L 290,210 L 290,206 L 287,203 L 287,199 L 276,189 Z" fill="orange" stroke="orange" stroke-width="0.3" /><path d="M 213,164 L 210,168 L 199,168 L 196,171 L 192,171 L 182,182 L 178,182 L 175,185 L 168,185 L 164,189 L 157,189 L 143,203 L 143,206 L 150,199 L 154,199 L 157,196 L 161,196 L 164,192 L 185,192 L 192,185 L 199,185 L 203,182 L 213,182 L 217,185 L 224,185 L 245,206 L 245,213 L 248,217 L 248,224 L 252,227 L 252,241 L 255,245 L 255,252 L 259,255 L 259,262 L 262,266 L 262,269 L 266,273 L 266,276 L 280,290 L 287,290 L 290,294 L 297,294 L 301,297 L 308,297 L 304,294 L 301,294 L 283,276 L 283,273 L 280,269 L 280,266 L 276,262 L 276,255 L 273,252 L 273,245 L 269,241 L 269,227 L 266,224 L 266,213 L 262,210 L 262,199 L 259,196 L 259,192 L 238,171 L 234,171 L 231,168 L 220,168 L 217,164 Z" fill="orange" stroke="orange" stroke-width="0.3" /><path d="M 178,129 L 175,133 L 171,133 L 168,136 L 164,136 L 150,150 L 150,154 L 147,157 L 147,161 L 143,164 L 140,164 L 136,168 L 126,168 L 122,171 L 119,171 L 115,175 L 108,175 L 101,182 L 98,182 L 94,185 L 91,185 L 91,189 L 87,192 L 87,196 L 73,210 L 66,210 L 63,213 L 59,213 L 52,220 L 45,220 L 38,227 L 31,227 L 24,234 L 24,238 L 28,241 L 28,245 L 31,248 L 31,266 L 35,269 L 35,273 L 42,280 L 42,290 L 45,294 L 45,297 L 49,301 L 49,304 L 56,311 L 63,311 L 70,304 L 73,304 L 77,301 L 84,301 L 87,297 L 112,297 L 115,294 L 129,294 L 133,290 L 143,290 L 147,294 L 133,308 L 129,308 L 112,325 L 112,350 L 115,353 L 115,357 L 126,367 L 122,364 L 122,339 L 126,336 L 126,332 L 171,287 L 171,283 L 175,280 L 175,248 L 171,245 L 171,241 L 168,238 L 168,234 L 164,234 L 164,259 L 147,276 L 143,276 L 140,280 L 129,280 L 126,283 L 112,283 L 108,287 L 98,287 L 94,290 L 84,290 L 80,294 L 73,294 L 70,297 L 66,297 L 63,301 L 59,301 L 52,294 L 52,287 L 56,283 L 59,283 L 63,280 L 66,280 L 70,283 L 84,283 L 87,280 L 87,276 L 84,273 L 73,273 L 70,276 L 66,276 L 63,280 L 59,280 L 56,276 L 52,276 L 49,273 L 45,273 L 42,269 L 42,266 L 38,262 L 38,255 L 42,252 L 42,248 L 52,238 L 52,234 L 49,234 L 45,231 L 49,227 L 56,227 L 63,220 L 70,220 L 73,217 L 77,217 L 80,213 L 84,213 L 87,217 L 84,220 L 87,220 L 91,217 L 98,217 L 101,213 L 108,213 L 115,206 L 115,203 L 101,203 L 98,199 L 98,196 L 105,189 L 108,189 L 115,182 L 122,182 L 126,178 L 129,178 L 133,175 L 143,175 L 147,171 L 154,171 L 154,168 L 175,147 L 182,147 L 185,143 L 217,143 L 220,147 L 227,147 L 231,150 L 234,150 L 241,157 L 245,157 L 252,164 L 252,168 L 259,175 L 259,171 L 255,168 L 255,164 L 252,161 L 252,157 L 231,136 L 227,136 L 224,133 L 217,133 L 213,129 Z" fill="orange" stroke="orange" stroke-width="0.3" /></svg>